<?xml version="1.0" encoding="UTF-8" standalone="no"?>
<svg xmlns="http://www.w3.org/2000/svg"
     xmlns:svg="http://www.w3.org/2000/svg"
     version="1.1"
     width="5.51333in" height="7.79667in"
     viewBox="0 0 1654 2339">
  <path id="lamda_21"
        fill="none" stroke="black" stroke-width="1"
        d="M 1349.63,1644.94
           C 1349.63,1644.94 1245.91,1645.42 1245.91,1645.42
             1245.91,1645.42 1246.03,1692.09 1245.91,1692.09
             1245.79,1692.09 1349.75,1692.80 1349.75,1692.80
             1349.75,1692.80 1349.63,1644.94 1349.63,1644.94 Z" />
  <path id="lamda_22"
        fill="none" stroke="black" stroke-width="1"
        d="M 1349.40,1644.46
           C 1349.40,1644.46 1306.54,1644.34 1306.54,1644.34
             1306.54,1644.34 1305.95,1627.75 1305.95,1627.75
             1305.95,1627.75 1349.63,1626.44 1349.63,1626.44
             1349.63,1626.44 1349.40,1644.46 1349.40,1644.46 Z" />
  <path id="lamda_23"
        fill="none" stroke="black" stroke-width="1"
        d="M 1305.95,1553.03
           C 1305.95,1553.03 1349.40,1552.43 1349.40,1552.43
             1349.40,1552.43 1349.28,1627.63 1349.40,1627.63
             1349.51,1627.63 1305.83,1627.51 1305.83,1627.51
             1305.83,1627.51 1305.95,1553.03 1305.95,1553.03 Z" />
  <path id="lamda_24"
        fill="none" stroke="black" stroke-width="1"
        d="M 1292.58,1599.10
           C 1292.58,1599.10 1247.34,1599.10 1247.34,1599.10
             1247.34,1599.10 1247.58,1561.15 1247.58,1561.15
             1247.58,1561.15 1292.82,1561.15 1292.94,1561.15
             1293.06,1561.15 1292.58,1599.10 1292.58,1599.10 Z" />
  <path id="lamda_25"
        fill="none" stroke="black" stroke-width="1"
        d="M 1236.57,1552.35
           C 1236.57,1552.35 1235.92,1598.96 1235.92,1598.96
             1235.92,1598.96 1209.00,1599.48 1209.00,1599.48
             1209.00,1599.48 1209.66,1552.61 1209.66,1552.61
             1209.66,1552.61 1236.57,1552.35 1236.57,1552.35 Z" />
  <path id="lamda_11"
        fill="none" stroke="black" stroke-width="1"
        d="M 1080.79,1692.16
           C 1080.79,1692.16 1080.55,1644.71 1080.55,1644.71
             1080.55,1644.71 978.38,1644.84 978.38,1644.84
             978.38,1644.84 977.99,1691.99 977.99,1692.09
             977.99,1692.19 1080.79,1692.16 1080.79,1692.16 Z" />
  <path id="lamda_12"
        fill="none" stroke="black" stroke-width="1"
        d="M 1080.53,1627.09
           C 1080.53,1627.09 1081.00,1644.81 1081.00,1644.81
             1081.00,1644.81 1036.87,1645.28 1036.80,1645.15
             1036.73,1645.01 1036.33,1627.29 1036.33,1627.29
             1036.33,1627.29 1080.53,1627.09 1080.53,1627.09 Z" />
  <path id="lamda_13"
        fill="none" stroke="black" stroke-width="1"
        d="M 1036.78,1552.10
           C 1036.78,1552.10 1080.98,1552.10 1080.98,1552.10
             1080.98,1552.10 1081.19,1626.96 1081.19,1626.96
             1081.19,1626.96 1036.57,1626.75 1036.57,1626.75
             1036.57,1626.75 1036.78,1552.10 1036.78,1552.10 Z" />
  <path id="lamda_14"
        fill="none" stroke="black" stroke-width="1"
        d="M 1019.61,1490.40
           C 1019.61,1490.40 978.09,1490.97 978.09,1490.97
             978.09,1490.97 977.90,1450.99 977.90,1450.99
             977.90,1450.99 1019.61,1450.41 1019.61,1450.41
             1019.61,1450.41 1019.61,1490.40 1019.61,1490.40 Z" />
  <path id="lamda_15"
        fill="none" stroke="black" stroke-width="1"
        d="M 1039.41,1450.80
           C 1039.41,1450.80 1020.00,1451.18 1020.00,1451.18
             1020.00,1451.18 1019.81,1489.82 1019.81,1489.82
             1019.81,1489.82 1040.18,1490.20 1040.18,1490.20
             1040.18,1490.20 1039.41,1450.80 1039.41,1450.80 Z" />
  <path id="lamda_16"
        fill="none" stroke="black" stroke-width="1"
        d="M 1080.36,1450.99
           C 1080.36,1450.99 1040.18,1449.64 1040.18,1449.64
             1040.18,1449.64 1040.76,1489.82 1040.76,1489.82
             1040.76,1489.82 1080.17,1490.78 1080.55,1490.01
             1080.94,1489.24 1080.36,1450.99 1080.36,1450.99 Z" />
  <path id="lamda_17"
        fill="none" stroke="black" stroke-width="1"
        d="M 1080.36,1396.39
           C 1080.36,1396.39 1080.36,1450.60 1080.36,1450.60
             1080.36,1450.60 1052.87,1450.60 1052.87,1450.60
             1052.87,1450.60 1052.29,1396.78 1052.29,1396.78
             1052.29,1396.78 1080.36,1396.39 1080.36,1396.39 Z" />
  <path id="lamda_18"
        fill="none" stroke="black" stroke-width="1"
        d="M 1051.91,1379.48
           C 1051.91,1379.48 1052.49,1336.99 1052.49,1336.99
             1052.49,1336.99 960.21,1337.38 960.21,1337.38
             960.21,1337.38 959.64,1380.44 959.64,1380.44
             959.64,1380.44 1051.91,1379.48 1051.91,1379.48 Z" />
  <path id="lamda_19"
        fill="none" stroke="black" stroke-width="1"
        d="M 959.64,1337.57
           C 959.64,1337.57 959.25,1379.86 959.25,1379.86
             959.25,1379.86 938.68,1379.29 938.68,1379.29
             938.68,1379.29 939.07,1337.57 939.07,1337.57
             939.07,1337.57 959.64,1337.57 959.64,1337.57 Z" />
  <path id="omicron_12"
        fill="none" stroke="black" stroke-width="1"
        d="M 1353.48,947.89
           C 1353.48,947.89 1353.77,1011.62 1353.77,1011.62
             1353.77,1011.62 1304.73,1012.65 1304.73,1012.65
             1304.73,1012.65 1303.55,948.48 1303.55,948.48
             1303.55,948.48 1353.48,947.89 1353.48,947.89 Z" />
  <path id="omicron_11"
        fill="none" stroke="black" stroke-width="1"
        d="M 1286.38,1030.25
           C 1286.38,1030.25 1345.07,1029.75 1345.07,1029.75
             1345.07,1029.75 1344.72,1082.45 1344.72,1082.45
             1344.72,1082.45 1285.41,1083.11 1285.93,1082.71
             1286.46,1082.31 1286.38,1030.25 1286.38,1030.25 Z" />
  <path id="omicron_13"
        fill="none" stroke="black" stroke-width="1"
        d="M 1293.39,875.42
           C 1293.48,875.33 1249.98,874.60 1249.98,874.60
             1249.98,874.60 1249.71,832.20 1249.71,832.20
             1249.71,832.20 1293.30,832.75 1293.30,832.75
             1293.30,832.75 1293.30,875.51 1293.39,875.42 Z" />
  <path id="omicron_14"
        fill="none" stroke="black" stroke-width="1"
        d="M 1315.99,874.53
           C 1315.99,874.53 1293.05,874.85 1293.05,874.85
             1293.05,874.85 1293.38,832.69 1293.38,832.69
             1293.38,832.69 1316.80,832.69 1316.80,832.69
             1316.80,832.69 1315.99,874.53 1315.99,874.53 Z" />
  <path id="omicron_15"
        fill="none" stroke="black" stroke-width="1"
        d="M 1359.44,875.01
           C 1359.44,875.01 1316.31,874.37 1316.31,874.37
             1316.31,874.37 1315.83,832.69 1315.83,832.69
             1315.83,832.69 1359.12,832.21 1359.12,832.21
             1359.12,832.21 1359.44,875.01 1359.44,875.01 Z" />
  <path id="omicron_16"
        fill="none" stroke="black" stroke-width="1"
        d="M 1359.77,773.41
           C 1359.77,773.41 1326.65,773.09 1326.65,773.09
             1326.65,773.09 1326.49,832.21 1326.49,832.21
             1326.49,832.21 1358.80,832.69 1358.80,832.69
             1358.80,832.69 1359.77,773.41 1359.77,773.41 Z" />
  <path id="omicron_17"
        fill="none" stroke="black" stroke-width="1"
        d="M 1359.93,756.45
           C 1359.93,756.45 1257.03,757.09 1256.87,756.93
             1256.71,756.77 1257.03,713.64 1257.03,713.64
             1257.03,713.64 1360.25,713.48 1360.25,713.48
             1360.25,713.48 1359.93,756.45 1359.93,756.45 Z" />
  <path id="omicron_18"
        fill="none" stroke="black" stroke-width="1"
        d="M 1256.74,713.82
           C 1256.74,713.82 1257.18,757.07 1257.18,757.07
             1257.18,757.07 1206.98,756.96 1207.09,756.85
             1207.20,756.74 1207.32,714.59 1207.32,714.59
             1207.32,714.59 1256.74,713.82 1256.74,713.82 Z" />
  <path id="omicron_24"
        fill="none" stroke="black" stroke-width="1"
        d="M 1257.07,694.40
           C 1257.07,694.40 1207.32,694.73 1207.32,694.73
             1207.32,694.73 1206.98,647.62 1206.98,647.62
             1206.98,647.62 1257.18,647.40 1257.18,647.40
             1257.18,647.40 1257.07,694.40 1257.07,694.40 Z" />
  <path id="omicron_21"
        fill="none" stroke="black" stroke-width="1"
        d="M 1354.29,694.33
           C 1353.66,693.61 1307.88,694.15 1307.88,694.15
             1307.88,694.15 1308.07,629.23 1308.07,629.23
             1308.07,629.23 1354.39,629.87 1354.20,629.87
             1354.02,629.87 1354.93,695.06 1354.29,694.33 Z" />
  <path id="omicron_22"
        fill="none" stroke="black" stroke-width="1"
        d="M 1256.93,547.83
           C 1256.93,547.83 1354.32,547.74 1354.32,547.74
             1354.32,547.74 1353.79,611.68 1353.79,611.68
             1353.79,611.68 1256.74,611.15 1256.74,611.15
             1256.74,611.15 1256.93,547.83 1256.93,547.83 Z
           M 1371.74,635.41" />
  <path id="omicron_23"
        fill="none" stroke="black" stroke-width="1"
        d="M 1237.86,547.90
           C 1237.86,547.90 1238.22,612.09 1238.22,612.09
             1238.22,612.09 1207.31,611.63 1207.31,611.63
             1207.31,611.63 1207.13,547.26 1207.13,547.26
             1207.13,547.26 1237.86,547.90 1237.86,547.90 Z" />
  <path id="iota_11"
        fill="none" stroke="black" stroke-width="1"
        d="M 1044.11,1026.71
           C 1044.11,1026.71 958.69,1026.91 958.69,1026.91
             958.69,1026.91 957.91,1082.22 957.91,1082.22
             957.91,1082.22 1043.52,1081.24 1043.52,1081.24
             1043.52,1081.24 1044.11,1026.71 1044.11,1026.71 Z" />
  <path id="iota_12"
        fill="none" stroke="black" stroke-width="1"
        d="M 948.92,947.75
           C 948.92,947.75 996.81,947.55 996.81,947.55
             996.81,947.55 996.61,1007.16 996.61,1007.16
             996.61,1007.16 949.31,1007.16 949.31,1007.16
             949.31,1007.16 948.92,947.75 948.92,947.75 Z" />
  <path id="iota_13"
        fill="none" stroke="black" stroke-width="1"
        d="M 1081.01,832.69
           C 1081.01,832.69 1080.47,874.89 1080.47,874.89
             1080.47,874.89 1037.63,874.77 1037.63,874.77
             1037.63,874.77 1037.51,832.41 1037.51,832.41
             1037.51,832.41 1081.01,832.69 1081.01,832.69 Z" />
  <path id="iota_14"
        fill="none" stroke="black" stroke-width="1"
        d="" />
  <path id="iota_15"
        fill="none" stroke="black" stroke-width="1"
        d="M 995.05,832.96
           C 995.05,832.96 994.79,874.87 994.79,874.87
             994.79,874.87 952.09,874.98 952.09,874.98
             952.09,874.98 951.98,832.73 951.98,832.73
             951.98,832.73 995.05,832.96 995.05,832.96 Z" />
  <path id="iota_16"
        fill="none" stroke="black" stroke-width="1"
        d="M 997.15,773.15
           C 997.15,773.15 951.87,773.15 951.87,773.15
             951.87,773.15 951.53,814.33 951.53,814.33
             951.53,814.33 996.81,813.99 996.81,813.99
             996.81,813.99 997.15,773.15 997.15,773.15 Z" />
  <path id="iota_17"
        fill="none" stroke="black" stroke-width="1"
        d="M 998.24,757.18
           C 998.24,757.18 951.00,756.75 951.00,756.75
             951.00,756.75 951.00,714.02 951.00,714.02
             951.00,714.02 997.88,713.96 997.88,713.96
             997.88,713.96 998.24,757.18 998.24,757.18 Z" />
  <path id="iota_18"
        fill="none" stroke="black" stroke-width="1"
        d="M 1103.46,757.15
           C 1103.46,757.15 1103.60,714.58 1103.60,714.58
             1103.60,714.58 998.03,714.44 998.03,714.44
             998.03,714.44 998.03,756.80 998.03,756.80
             998.03,756.80 1103.46,757.15 1103.46,757.15 Z" />
  <path id="iota_21"
        fill="none" stroke="black" stroke-width="1"
        d="M 1054.04,694.72
           C 1054.04,694.72 1054.36,647.88 1054.25,647.88
             1054.15,647.88 1002.50,647.57 1002.50,647.57
             1002.50,647.57 1001.98,693.88 1001.98,693.88
             1001.98,693.88 1054.04,694.72 1054.04,694.72 Z" />
  <path id="iota_22"
        fill="none" stroke="black" stroke-width="1"
        d="M 1001.92,694.07
           C 1001.92,694.07 1001.92,647.41 1001.92,647.41
             1001.92,647.41 957.00,647.67 957.00,647.67
             957.00,647.67 956.74,694.33 956.74,694.33
             956.74,694.33 1001.92,694.07 1001.92,694.07 Z" />
  <path id="iota_23"
        fill="none" stroke="black" stroke-width="1"
        d="M 957.09,547.29
           C 957.09,547.29 1053.80,547.43 1053.80,547.43
             1053.80,547.43 1053.80,624.52 1053.80,624.52
             1053.80,624.52 956.95,625.21 956.95,625.21
             956.95,625.21 957.09,547.29 957.09,547.29 Z" />
  <path id="epsilon_11"
        fill="none" stroke="black" stroke-width="1"
        d="M 736.49,1081.97
           C 736.49,1081.97 677.05,1082.19 677.05,1082.19
             677.05,1082.19 677.14,1029.98 677.14,1029.98
             677.14,1029.98 736.61,1030.16 736.61,1030.16
             736.61,1030.16 736.49,1081.97 736.49,1081.97 Z" />
  <path id="epsilon_12"
        fill="none" stroke="black" stroke-width="1"
        d="M 745.11,1011.86
           C 745.11,1011.86 695.69,1011.82 695.69,1011.82
             695.69,1011.82 695.48,947.74 695.48,947.74
             695.48,947.74 744.96,948.08 744.96,948.08
             744.96,948.08 745.11,1011.86 745.11,1011.86 Z" />
  <path id="epsilon_13"
        fill="none" stroke="black" stroke-width="1"
        d="M 683.89,875.19
           C 683.89,875.19 641.72,874.85 641.72,874.85
             641.72,874.85 641.42,832.48 641.42,832.48
             641.42,832.48 683.97,832.70 683.97,832.70
             683.97,832.70 683.89,875.19 683.89,875.19 Z" />
  <path id="epsilon_14"
        fill="none" stroke="black" stroke-width="1"
        d="M 707.84,832.68
           C 707.84,832.68 684.38,833.06 684.38,833.06
             684.38,833.06 683.77,875.16 683.77,875.16
             683.77,875.16 707.56,875.27 707.56,875.27
             707.56,875.27 707.84,832.68 707.84,832.68 Z" />
  <path id="epsilon_15"
        fill="none" stroke="black" stroke-width="1"
        d="M 750.19,874.75
           C 750.19,874.75 707.48,875.44 707.48,875.44
             707.48,875.44 707.56,832.57 707.56,832.57
             707.56,832.57 750.15,832.68 750.15,832.68
             750.15,832.68 750.47,875.01 750.42,874.96" />
  <path id="epsilon_16"
        fill="none" stroke="black" stroke-width="1"
        d="M 750.54,832.27
           C 750.54,832.27 717.79,832.64 717.79,832.64
             717.79,832.64 717.85,773.54 717.85,773.54
             717.85,773.54 750.51,773.38 750.51,773.38
             750.51,773.38 750.54,832.27 750.54,832.27 Z" />
  <path id="epsilon_17"
        fill="none" stroke="black" stroke-width="1"
        d="M 750.67,714.03
           C 750.67,714.03 648.10,713.91 648.10,713.91
             648.10,713.91 648.05,756.94 648.05,756.94
             648.05,756.94 751.22,756.84 751.22,756.84
             751.22,756.84 750.67,714.03 750.67,714.03 Z" />
  <path id="epsilon_18"
        fill="none" stroke="black" stroke-width="1"
        d="M 648.39,713.75
           C 648.39,713.75 648.27,756.91 648.27,756.91
             648.27,756.91 598.55,756.78 598.55,756.78
             598.55,756.78 599.30,714.06 599.30,714.06
             599.30,714.06 648.39,713.75 648.39,713.75 Z" />
  <path id="epsilon_21"
        fill="none" stroke="black" stroke-width="1"
        d="M 745.28,629.75
           C 745.28,629.75 698.85,629.85 698.85,629.85
             698.85,629.85 699.05,694.38 699.05,694.38
             699.05,694.38 745.57,694.29 745.57,694.29
             745.57,694.29 745.28,629.75 745.28,629.75 Z" />
  <path id="kappa_24"
        fill="none" stroke="black" stroke-width="1"
        d="M 648.18,694.39
           C 648.18,694.39 598.88,694.27 598.65,694.27
             598.43,694.27 598.32,647.52 598.32,647.52
             598.32,647.52 647.52,647.96 647.52,647.96
             647.52,647.96 648.18,694.39 648.18,694.39 Z" />
  <path id="epsilon_22"
        fill="none" stroke="black" stroke-width="1"
        d="M 745.66,547.76
           C 745.66,547.76 745.18,611.82 745.18,611.82
             745.18,611.82 647.88,611.92 647.88,611.92
             647.88,611.92 647.77,547.41 647.77,547.41
             647.77,547.41 745.66,547.76 745.66,547.76 Z" />
  <path id="epsilon_23"
        fill="none" stroke="black" stroke-width="1"
        d="M 598.95,547.65
           C 598.95,547.65 629.51,547.65 629.51,547.65
             629.51,547.65 629.57,611.90 629.57,611.90
             629.57,611.90 598.66,611.64 598.66,611.64
             598.66,611.64 598.95,547.65 598.95,547.65 Z" />
  <path id="kappa_11"
        fill="none" stroke="black" stroke-width="1"
        d="M 348.93,1027.04
           C 348.93,1027.04 434.99,1026.73 434.99,1026.90
             434.99,1027.06 434.91,1081.96 434.91,1081.96
             434.91,1081.96 349.00,1082.05 349.00,1082.05
             349.00,1082.05 348.93,1027.04 348.93,1027.04 Z" />
  <path id="kappa_12"
        fill="none" stroke="black" stroke-width="1"
        d="M 387.95,947.83
           C 387.95,947.83 387.99,1007.21 387.99,1007.21
             387.99,1007.21 339.85,1007.09 339.85,1007.09
             339.85,1007.09 339.95,947.80 339.95,947.80
             339.95,947.80 387.95,947.83 387.95,947.83 Z" />
  <path id="kappa_13"
        fill="none" stroke="black" stroke-width="1"
        d="M 471.78,874.76
           C 471.78,874.67 472.30,832.50 472.30,832.50
             472.30,832.50 428.66,832.59 428.66,832.59
             428.66,832.59 429.18,875.36 429.18,875.36
             429.18,875.36 471.78,874.84 471.78,874.76 Z" />
  <path id="kappa_14"
        fill="none" stroke="black" stroke-width="1"
        d="M 428.95,875.56
           C 428.95,874.32 429.14,832.61 429.14,832.61
             429.14,832.61 386.00,832.23 386.00,832.23
             386.00,832.23 386.10,875.18 386.10,875.18
             386.10,875.18 428.95,876.80 428.95,875.56 Z" />
  <path id="kappa_15"
        fill="none" stroke="black" stroke-width="1"
        d="M 343.13,832.60
           C 343.13,832.60 386.03,832.66 386.03,832.66
             386.03,832.66 385.97,874.67 385.97,874.67
             385.97,874.67 343.27,875.28 343.27,875.28
             343.27,875.28 343.13,832.60 343.13,832.60 Z" />
  <path id="kappa_16"
        fill="none" stroke="black" stroke-width="1"
        d="M 343.12,813.82
           C 343.12,813.82 387.70,813.82 387.70,813.82
             387.70,813.82 387.91,773.17 387.91,773.17
             387.91,773.17 343.23,773.17 343.23,773.17
             343.23,773.17 343.12,813.82 343.12,813.82 Z" />
  <path id="kappa_18"
        fill="none" stroke="black" stroke-width="1"
        d="M 389.36,713.70
           C 389.36,713.70 494.35,713.65 494.35,713.65
             494.35,713.65 494.99,757.32 494.99,757.32
             494.99,757.32 389.53,757.36 389.53,757.36
             389.53,757.36 389.36,713.70 389.36,713.70 Z" />
  <path id="kappa_17"
        fill="none" stroke="black" stroke-width="1"
        d="M 341.94,714.57
           C 341.94,714.57 389.06,714.42 389.06,714.42
             389.06,714.42 389.53,756.58 389.53,756.58
             389.53,756.58 342.40,759.21 342.40,758.13" />
  <path id="kappa_21"
        fill="none" stroke="black" stroke-width="1"
        d="M 446.01,647.82
           C 446.01,647.82 495.15,647.82 495.15,647.82
             495.15,647.82 496.08,694.70 496.08,694.70
             496.08,694.70 445.44,695.08 445.44,695.08" />
  <path id="kappa_22"
        fill="none" stroke="black" stroke-width="1"
        d="M 394.62,647.07
           C 394.62,647.07 445.44,648.00 445.44,648.00
             445.44,648.00 444.88,694.70 444.88,694.70
             444.88,694.70 392.74,694.89 392.74,694.89
             392.74,694.89 394.62,647.07 394.62,647.07 Z" />
  <path id="kappa 23"
        fill="none" stroke="black" stroke-width="1"
        d="M 349.16,547.68
           C 349.16,547.68 444.00,548.03 444.00,548.03
             444.00,548.03 443.93,625.03 443.93,625.03
             443.93,625.03 347.36,624.58 347.36,624.58
             347.36,624.58 349.16,547.68 349.16,547.68 Z
           M 394.99,648.19" />
</svg>
